<svg width="90" height="90" viewBox="0 0 90 90" fill="none" xmlns="http://www.w3.org/2000/svg">
<circle cx="45" cy="45" r="44" stroke="#3ED924" stroke-width="2"/>
<path d="M34.6179 42C34.6179 41.136 34.7139 40.352 34.9059 39.648C35.1139 38.928 35.4979 38.248 36.0579 37.608C36.6339 36.968 37.4579 36.344 38.5299 35.736C39.1699 35.384 39.8099 35.048 40.4499 34.728C41.1059 34.392 41.6499 34.024 42.0819 33.624C42.5299 33.208 42.7539 32.72 42.7539 32.16C42.7539 31.6 42.5059 31.088 42.0099 30.624C41.5299 30.16 40.8259 29.928 39.8979 29.928C39.2739 29.928 38.7139 30.04 38.2179 30.264C37.7219 30.472 37.2979 30.728 36.9459 31.032C36.6099 31.32 36.3379 31.584 36.1299 31.824L34.8099 30.336C34.9859 30.144 35.3139 29.872 35.7939 29.52C36.2739 29.152 36.8899 28.816 37.6419 28.512C38.3939 28.208 39.2659 28.056 40.2579 28.056C41.2499 28.056 42.0979 28.232 42.8019 28.584C43.5219 28.92 44.0739 29.384 44.4579 29.976C44.8419 30.552 45.0339 31.2 45.0339 31.92C45.0339 32.544 44.8979 33.088 44.6259 33.552C44.3699 34.016 44.0339 34.424 43.6179 34.776C43.2179 35.128 42.7939 35.432 42.3459 35.688C41.9139 35.928 41.5219 36.136 41.1699 36.312C40.2099 36.792 39.4339 37.216 38.8419 37.584C38.2499 37.936 37.8019 38.304 37.4979 38.688C37.1939 39.072 36.9699 39.536 36.8259 40.08H45.2979V42H34.6179ZM55.2137 32.616V34.344H52.3817V37.416H50.4617V34.344H47.6297V32.616H50.4617V29.544H52.3817V32.616H55.2137ZM25.7719 66.096V64.2C26.3159 64.184 26.7959 63.984 27.2119 63.6C27.6279 63.216 27.9559 62.512 28.1959 61.488C28.4519 60.464 28.6119 59 28.6759 57.096L28.8199 53.472H37.3399V66H35.2279V55.344H30.6919L30.6439 57.288C30.5639 59.56 30.3319 61.336 29.9479 62.616C29.5799 63.896 29.0439 64.792 28.3399 65.304C27.6519 65.816 26.7959 66.08 25.7719 66.096ZM46.2949 66.24C45.0469 66.24 43.9429 65.944 42.9829 65.352C42.0229 64.76 41.2709 63.968 40.7269 62.976C40.1829 61.984 39.9109 60.904 39.9109 59.736C39.9109 58.552 40.1829 57.472 40.7269 56.496C41.2709 55.52 42.0229 54.736 42.9829 54.144C43.9589 53.552 45.0709 53.256 46.3189 53.256C47.5829 53.256 48.6789 53.56 49.6069 54.168C50.5509 54.76 51.2789 55.544 51.7909 56.52C52.3189 57.48 52.5829 58.52 52.5829 59.64C52.5829 59.992 52.5669 60.264 52.5349 60.456H42.1429C42.2069 61.272 42.4309 62 42.8149 62.64C43.2149 63.264 43.7269 63.76 44.3509 64.128C44.9749 64.48 45.6469 64.656 46.3669 64.656C47.1349 64.656 47.8549 64.464 48.5269 64.08C49.2149 63.696 49.6869 63.192 49.9429 62.568L51.7669 63.072C51.3669 64 50.6709 64.76 49.6789 65.352C48.6869 65.944 47.5589 66.24 46.2949 66.24ZM42.0709 58.992H50.6149C50.5509 58.176 50.3189 57.456 49.9189 56.832C49.5189 56.208 49.0069 55.72 48.3829 55.368C47.7589 55.016 47.0709 54.84 46.3189 54.84C45.5829 54.84 44.9029 55.016 44.2789 55.368C43.6549 55.72 43.1429 56.208 42.7429 56.832C42.3589 57.456 42.1349 58.176 42.0709 58.992ZM57.9786 66V55.344H53.6586V53.472H64.4106V55.344H60.0906V66H57.9786Z" fill="white"/>
</svg>
