<svg width="90" height="90" viewBox="0 0 90 90" fill="none" xmlns="http://www.w3.org/2000/svg">
<circle cx="45" cy="45" r="44" stroke="#3ED924" stroke-width="2"/>
<path d="M34.7483 47.336C35.7723 47.512 36.5803 47.984 37.1723 48.752C37.7803 49.52 38.0843 50.472 38.0843 51.608C38.0843 52.584 37.8443 53.44 37.3643 54.176C36.9003 54.928 36.2363 55.504 35.3723 55.904C34.5083 56.32 33.5003 56.528 32.3483 56.528C31.1323 56.528 30.0603 56.296 29.1323 55.832C28.2203 55.384 27.5083 54.744 26.9963 53.912L28.4123 52.496C28.7803 53.136 29.2763 53.648 29.9003 54.032C30.5403 54.416 31.3563 54.608 32.3483 54.608C33.4523 54.608 34.3163 54.352 34.9403 53.84C35.5803 53.344 35.9003 52.6 35.9003 51.608C35.9003 50.6 35.5563 49.8 34.8683 49.208C34.1963 48.6 33.2123 48.296 31.9163 48.296H31.2923V46.52H31.9643C33.1163 46.52 33.9963 46.24 34.6043 45.68C35.2283 45.12 35.5403 44.424 35.5403 43.592C35.5403 42.744 35.2443 42.112 34.6523 41.696C34.0603 41.28 33.3163 41.072 32.4203 41.072C31.5403 41.072 30.7643 41.264 30.0923 41.648C29.4363 42.016 28.9243 42.536 28.5563 43.208L27.2603 41.864C27.6763 41.064 28.3723 40.416 29.3483 39.92C30.3403 39.424 31.4363 39.176 32.6363 39.176C33.6443 39.176 34.5323 39.352 35.3003 39.704C36.0843 40.056 36.6923 40.552 37.1243 41.192C37.5563 41.832 37.7723 42.584 37.7723 43.448C37.7723 44.392 37.5003 45.24 36.9563 45.992C36.4283 46.728 35.6923 47.176 34.7483 47.336ZM52.5572 45.968C52.5572 47.376 52.2932 48.632 51.7652 49.736C51.2372 50.824 50.5172 51.68 49.6052 52.304C48.6932 52.928 47.6532 53.24 46.4852 53.24C45.3172 53.24 44.2772 52.928 43.3652 52.304C42.4532 51.68 41.7332 50.824 41.2052 49.736C40.6772 48.632 40.4132 47.376 40.4132 45.968C40.4132 44.56 40.6772 43.312 41.2052 42.224C41.7332 41.12 42.4532 40.256 43.3652 39.632C44.2772 38.992 45.3172 38.672 46.4852 38.672C47.6532 38.672 48.6932 38.992 49.6052 39.632C50.5172 40.256 51.2372 41.12 51.7652 42.224C52.2932 43.312 52.5572 44.56 52.5572 45.968ZM50.4212 45.968C50.4212 44.912 50.2532 43.984 49.9172 43.184C49.5812 42.384 49.1172 41.76 48.5252 41.312C47.9332 40.864 47.2532 40.64 46.4852 40.64C45.7012 40.64 45.0132 40.864 44.4212 41.312C43.8292 41.76 43.3652 42.384 43.0292 43.184C42.6932 43.984 42.5252 44.912 42.5252 45.968C42.5252 47.024 42.6932 47.952 43.0292 48.752C43.3652 49.536 43.8292 50.152 44.4212 50.6C45.0132 51.048 45.7012 51.272 46.4852 51.272C47.2532 51.272 47.9332 51.048 48.5252 50.6C49.1172 50.152 49.5812 49.536 49.9172 48.752C50.2532 47.952 50.4212 47.024 50.4212 45.968ZM62.6434 43.616V45.344H59.8114V48.416H57.8914V45.344H55.0594V43.616H57.8914V40.544H59.8114V43.616H62.6434Z" fill="white"/>
</svg>
