<svg width="90" height="90" viewBox="0 0 90 90" fill="none" xmlns="http://www.w3.org/2000/svg">
<circle cx="45" cy="45.0005" r="44" stroke="#3ED924" stroke-width="2"/>
<path d="M43.1529 27.5365C42.7849 27.1205 42.2249 26.7445 41.4729 26.4085C40.7369 26.0565 39.9129 25.8485 39.0009 25.7845V31.4965L39.1689 31.5445C40.3529 31.8005 41.3769 32.1125 42.2409 32.4805C43.1049 32.8485 43.7689 33.3445 44.2329 33.9685C44.6969 34.5765 44.9289 35.3925 44.9289 36.4165C44.9289 37.4725 44.6729 38.3445 44.1609 39.0325C43.6649 39.7205 42.9769 40.2405 42.0969 40.5925C41.2329 40.9285 40.2489 41.1205 39.1449 41.1685V43.5685H37.8009V41.1205C35.5129 40.9445 33.5129 40.1605 31.8009 38.7685L32.8329 36.9445C33.2969 37.4245 33.9769 37.8885 34.8729 38.3365C35.7849 38.7845 36.8009 39.0645 37.9209 39.1765V33.4165C37.8569 33.4005 37.7849 33.3845 37.7049 33.3685C36.5529 33.0805 35.5849 32.7685 34.8009 32.4325C34.0329 32.0805 33.4489 31.6245 33.0489 31.0645C32.6489 30.5045 32.4489 29.7765 32.4489 28.8805C32.4489 27.8725 32.6729 27.0085 33.1209 26.2885C33.5849 25.5685 34.2169 25.0085 35.0169 24.6085C35.8329 24.1925 36.7609 23.9445 37.8009 23.8645V21.4405H39.1449V23.8645C40.1529 23.9125 41.0729 24.1125 41.9049 24.4645C42.7529 24.8005 43.5049 25.2405 44.1609 25.7845L43.1529 27.5365ZM34.6809 28.5445C34.6809 29.3285 34.9449 29.9045 35.4729 30.2725C36.0009 30.6405 36.8169 30.9685 37.9209 31.2565V25.7845C36.8169 25.8645 36.0009 26.1445 35.4729 26.6245C34.9449 27.1045 34.6809 27.7445 34.6809 28.5445ZM42.6249 36.6325C42.6249 35.8165 42.3129 35.2085 41.6889 34.8085C41.0649 34.3925 40.1689 34.0245 39.0009 33.7045V39.2245C40.1529 39.1925 41.0409 38.9605 41.6649 38.5285C42.3049 38.0965 42.6249 37.4645 42.6249 36.6325ZM52.1786 44.5765C50.9626 44.5765 49.8666 44.2885 48.8906 43.7125C47.9146 43.1365 47.1786 42.3685 46.6826 41.4085L48.0026 40.2565C48.4506 40.9925 49.0426 41.5845 49.7786 42.0325C50.5306 42.4805 51.3386 42.7045 52.2026 42.7045C52.9386 42.7045 53.5946 42.5445 54.1706 42.2245C54.7466 41.9045 55.2026 41.4645 55.5386 40.9045C55.8746 40.3285 56.0426 39.6725 56.0426 38.9365C56.0426 38.2165 55.8746 37.5845 55.5386 37.0405C55.2186 36.4965 54.7786 36.0725 54.2186 35.7685C53.6746 35.4645 53.0586 35.3125 52.3706 35.3125C51.6826 35.3125 51.0346 35.4645 50.4266 35.7685C49.8346 36.0725 49.3466 36.5045 48.9626 37.0645H47.0666L48.9866 27.2965H57.2666V29.2405H50.5466L49.5146 34.6645C49.8666 34.2965 50.3066 34.0085 50.8346 33.8005C51.3786 33.5765 51.9786 33.4645 52.6346 33.4645C53.6906 33.4645 54.6346 33.6965 55.4666 34.1605C56.3146 34.6245 56.9786 35.2645 57.4586 36.0805C57.9546 36.8965 58.2026 37.8405 58.2026 38.9125C58.2026 40.0325 57.9306 41.0165 57.3866 41.8645C56.8586 42.7285 56.1386 43.3925 55.2266 43.8565C54.3146 44.3365 53.2986 44.5765 52.1786 44.5765ZM24.1566 65.0005V52.4725H26.3406L30.9966 60.6805L35.6766 52.4725H37.8126V65.0005H35.7966V55.5205L31.6686 62.7685H30.3246L26.1726 55.5205V65.0005H24.1566ZM40.1156 65.0965V63.2005C40.6596 63.1845 41.1396 62.9845 41.5556 62.6005C41.9716 62.2165 42.2996 61.5125 42.5396 60.4885C42.7956 59.4645 42.9556 58.0005 43.0196 56.0965L43.1636 52.4725H51.6836V65.0005H49.5716V54.3445H45.0356L44.9876 56.2885C44.9076 58.5605 44.6756 60.3365 44.2916 61.6165C43.9236 62.8965 43.3876 63.7925 42.6836 64.3045C41.9956 64.8165 41.1396 65.0805 40.1156 65.0965ZM55.0706 65.0005V52.4725H57.1826V57.6565H63.7106V52.4725H65.8226V65.0005H63.7106V59.5285H57.1826V65.0005H55.0706Z" fill="white"/>
</svg>
