<svg width="90" height="90" viewBox="0 0 90 90" fill="none" xmlns="http://www.w3.org/2000/svg">
<circle cx="45" cy="45" r="44" stroke="#3ED924" stroke-width="2"/>
<path d="M41.737 45.048V40.992H34.033V39.12L42.409 28.296H43.849V39.072H45.961V40.992H43.849V45.048H41.737ZM36.217 39.072H41.953V31.56L36.217 39.072ZM55.3426 32.616V34.344H52.5106V37.416H50.5906V34.344H47.7586V32.616H50.5906V29.544H52.5106V32.616H55.3426ZM24.1566 66V53.472H26.3406L30.9966 61.68L35.6766 53.472H37.8126V66H35.7966V56.52L31.6686 63.768H30.3246L26.1726 56.52V66H24.1566ZM40.1156 66.096V64.2C40.6596 64.184 41.1396 63.984 41.5556 63.6C41.9716 63.216 42.2996 62.512 42.5396 61.488C42.7956 60.464 42.9556 59 43.0196 57.096L43.1636 53.472H51.6836V66H49.5716V55.344H45.0356L44.9876 57.288C44.9076 59.56 44.6756 61.336 44.2916 62.616C43.9236 63.896 43.3876 64.792 42.6836 65.304C41.9956 65.816 41.1396 66.08 40.1156 66.096ZM55.0706 66V53.472H57.1826V58.656H63.7106V53.472H65.8226V66H63.7106V60.528H57.1826V66H55.0706Z" fill="white"/>
</svg>
