<svg width="90" height="90" viewBox="0 0 90 90" fill="none" xmlns="http://www.w3.org/2000/svg">
<circle cx="45" cy="45.0005" r="44" stroke="#3ED924" stroke-width="2"/>
<path d="M28.8015 53.0005C28.8015 52.1365 28.8975 51.3525 29.0895 50.6485C29.2975 49.9285 29.6815 49.2485 30.2415 48.6085C30.8175 47.9685 31.6415 47.3445 32.7135 46.7365C33.3535 46.3845 33.9935 46.0485 34.6335 45.7285C35.2895 45.3925 35.8335 45.0245 36.2655 44.6245C36.7135 44.2085 36.9375 43.7205 36.9375 43.1605C36.9375 42.6005 36.6895 42.0885 36.1935 41.6245C35.7135 41.1605 35.0095 40.9285 34.0815 40.9285C33.4575 40.9285 32.8975 41.0405 32.4015 41.2645C31.9055 41.4725 31.4815 41.7285 31.1295 42.0325C30.7935 42.3205 30.5215 42.5845 30.3135 42.8245L28.9935 41.3365C29.1695 41.1445 29.4975 40.8725 29.9775 40.5205C30.4575 40.1525 31.0735 39.8165 31.8255 39.5125C32.5775 39.2085 33.4495 39.0565 34.4415 39.0565C35.4335 39.0565 36.2815 39.2325 36.9855 39.5845C37.7055 39.9205 38.2575 40.3845 38.6415 40.9765C39.0255 41.5525 39.2175 42.2005 39.2175 42.9205C39.2175 43.5445 39.0815 44.0885 38.8095 44.5525C38.5535 45.0165 38.2175 45.4245 37.8015 45.7765C37.4015 46.1285 36.9775 46.4325 36.5295 46.6885C36.0975 46.9285 35.7055 47.1365 35.3535 47.3125C34.3935 47.7925 33.6175 48.2165 33.0255 48.5845C32.4335 48.9365 31.9855 49.3045 31.6815 49.6885C31.3775 50.0725 31.1535 50.5365 31.0095 51.0805H39.4815V53.0005H28.8015ZM46.9013 56.5765C45.6853 56.5765 44.5893 56.2885 43.6133 55.7125C42.6373 55.1365 41.9013 54.3685 41.4053 53.4085L42.7253 52.2565C43.1733 52.9925 43.7653 53.5845 44.5013 54.0325C45.2533 54.4805 46.0613 54.7045 46.9253 54.7045C47.6613 54.7045 48.3173 54.5445 48.8933 54.2245C49.4693 53.9045 49.9253 53.4645 50.2613 52.9045C50.5973 52.3285 50.7653 51.6725 50.7653 50.9365C50.7653 50.2165 50.5973 49.5845 50.2613 49.0405C49.9413 48.4965 49.5013 48.0725 48.9413 47.7685C48.3973 47.4645 47.7813 47.3125 47.0933 47.3125C46.4053 47.3125 45.7573 47.4645 45.1493 47.7685C44.5573 48.0725 44.0693 48.5045 43.6853 49.0645H41.7893L43.7093 39.2965H51.9893V41.2405H45.2693L44.2373 46.6645C44.5893 46.2965 45.0293 46.0085 45.5573 45.8005C46.1013 45.5765 46.7013 45.4645 47.3573 45.4645C48.4133 45.4645 49.3573 45.6965 50.1893 46.1605C51.0373 46.6245 51.7013 47.2645 52.1813 48.0805C52.6773 48.8965 52.9253 49.8405 52.9253 50.9125C52.9253 52.0325 52.6533 53.0165 52.1093 53.8645C51.5813 54.7285 50.8613 55.3925 49.9493 55.8565C49.0373 56.3365 48.0213 56.5765 46.9013 56.5765ZM62.0301 43.6165V45.3445H59.1981V48.4165H57.2781V45.3445H54.4461V43.6165H57.2781V40.5445H59.1981V43.6165H62.0301Z" fill="white"/>
</svg>
