<svg width="90" height="90" viewBox="0 0 90 90" fill="none" xmlns="http://www.w3.org/2000/svg">
<circle cx="45" cy="45.0005" r="44" stroke="#3ED924" stroke-width="2"/>
<path d="M42.4506 51.0805V53.0005H33.8346V51.0805H37.2426V41.7205C37.0666 41.9605 36.7466 42.2325 36.2826 42.5365C35.8186 42.8245 35.3146 43.0725 34.7706 43.2805C34.2266 43.4885 33.7466 43.5925 33.3306 43.5925V41.5765C33.6826 41.5765 34.0666 41.4805 34.4826 41.2885C34.9146 41.0805 35.3306 40.8405 35.7306 40.5685C36.1306 40.2965 36.4666 40.0405 36.7386 39.8005C37.0266 39.5605 37.1946 39.3925 37.2426 39.2965H39.4026V51.0805H42.4506ZM56.4713 45.9685C56.4713 47.3765 56.2073 48.6325 55.6793 49.7365C55.1513 50.8245 54.4313 51.6805 53.5193 52.3045C52.6073 52.9285 51.5673 53.2405 50.3993 53.2405C49.2313 53.2405 48.1913 52.9285 47.2793 52.3045C46.3673 51.6805 45.6473 50.8245 45.1193 49.7365C44.5913 48.6325 44.3273 47.3765 44.3273 45.9685C44.3273 44.5605 44.5913 43.3125 45.1193 42.2245C45.6473 41.1205 46.3673 40.2565 47.2793 39.6325C48.1913 38.9925 49.2313 38.6725 50.3993 38.6725C51.5673 38.6725 52.6073 38.9925 53.5193 39.6325C54.4313 40.2565 55.1513 41.1205 55.6793 42.2245C56.2073 43.3125 56.4713 44.5605 56.4713 45.9685ZM54.3353 45.9685C54.3353 44.9125 54.1673 43.9845 53.8313 43.1845C53.4953 42.3845 53.0313 41.7605 52.4393 41.3125C51.8473 40.8645 51.1673 40.6405 50.3993 40.6405C49.6153 40.6405 48.9273 40.8645 48.3353 41.3125C47.7433 41.7605 47.2793 42.3845 46.9433 43.1845C46.6073 43.9845 46.4393 44.9125 46.4393 45.9685C46.4393 47.0245 46.6073 47.9525 46.9433 48.7525C47.2793 49.5365 47.7433 50.1525 48.3353 50.6005C48.9273 51.0485 49.6153 51.2725 50.3993 51.2725C51.1673 51.2725 51.8473 51.0485 52.4393 50.6005C53.0313 50.1525 53.4953 49.5365 53.8313 48.7525C54.1673 47.9525 54.3353 47.0245 54.3353 45.9685Z" fill="white"/>
</svg>
